<svg width="832" height="832" viewBox="0 0 832 832" fill="none" xmlns="http://www.w3.org/2000/svg">
<mask id="mask0_2205_59" style="mask-type:alpha" maskUnits="userSpaceOnUse" x="-2" y="-4" width="836" height="836">
<circle cx="416" cy="414" r="418" fill="#D9D9D9"/>
</mask>
<g mask="url(#mask0_2205_59)">
<rect width="832" height="832" fill="white"/>
<rect width="832" height="832" fill="white"/>
<rect width="832" height="832" fill="url(#paint0_linear_2205_59)" fill-opacity="0.4"/>
<path d="M291.124 443.653C290.281 442.053 289.469 440.432 288.693 438.791L295.484 438.621C296.249 440.259 297.045 441.88 297.869 443.485L291.124 443.653ZM405.192 440.821L334.977 437.641L548.723 432.335C554.279 420.275 558.164 407.309 559.083 392.595C559.452 386.683 559.384 380.877 558.916 375.196L560.842 375.148C561.739 382.383 561.99 389.831 561.514 397.457C560.596 412.172 556.711 425.137 551.153 437.199L405.192 440.821Z" fill="#B2AFAD"/>
<path d="M559.083 392.595C559.559 384.968 559.308 377.52 558.411 370.285L276.079 377.293C275.552 384.537 275.663 391.987 276.476 399.611C278.043 414.308 282.525 427.075 288.692 438.791L548.723 432.335C554.279 420.275 558.164 407.309 559.083 392.595Z" fill="#3FABD1"/>
<path d="M327.305 376.023L275.432 373.108C275.675 371.535 275.948 369.975 276.251 368.427L385.643 374.575L327.305 376.023ZM553.587 370.405C551.781 359.192 548.38 348.464 543.619 338.395C548.899 348.401 552.816 359.123 555.121 370.367L553.587 370.405Z" fill="#B2AFAD"/>
<path d="M557.405 388.952L327.305 376.023L385.643 374.575L554.973 384.089C554.777 379.459 554.311 374.892 553.587 370.405L555.121 370.367C556.363 376.42 557.137 382.624 557.405 388.952Z" fill="#2E7B94"/>
<path d="M537.003 326.208L297.131 312.729C284.791 328.533 276.244 347.283 273 368.244L554.973 384.089C554.083 363.084 547.62 343.433 537.003 326.208Z" fill="#206DB2"/>
<path d="M348.779 551.072C349.083 549.479 349.368 547.841 349.602 546.193L495.072 545.456C493.654 537.395 492.528 528.276 495.527 522.645C498.899 516.313 502.627 510.273 506.538 504.411L512.297 504.381C507.175 511.775 502.275 519.401 497.957 527.508C494.96 533.139 496.086 542.257 497.504 550.319L490.372 550.355C490.359 550.292 490.346 550.228 490.332 550.164L484.884 550.383L348.779 551.072ZM346.688 526.483C342.224 519.096 337.274 512.104 332.146 505.293L333.312 505.288C337.556 511.119 341.622 517.116 345.322 523.407C345.887 524.368 346.338 525.397 346.688 526.483Z" fill="#B2AFAD"/>
<path d="M345.322 523.407C348.911 529.508 347.839 538.385 346.347 546.209L495.072 545.456C493.653 537.395 492.528 528.276 495.527 522.645C499.844 514.537 504.744 506.912 509.867 499.519L329.714 500.431C335.254 507.788 340.587 515.356 345.322 523.407Z" fill="#FAC51C"/>
<path d="M512.219 504.055L506.936 503.815C507.903 502.373 508.882 500.941 509.867 499.519L421.914 499.964L332.248 495.903C320.354 478.336 307.292 461.848 297.87 443.485L405.192 440.821L554.044 447.564C542.886 467.9 526.808 485.111 512.219 504.055Z" fill="#B2AFAD"/>
<path d="M297.869 443.485C297.045 441.88 296.249 440.259 295.484 438.621L334.977 437.641L405.192 440.821L297.869 443.485Z" fill="#827E7B"/>
<path d="M295.484 438.621C295.045 437.685 294.617 436.743 294.201 435.795L334.977 437.641L295.484 438.621Z" fill="#2E7B94"/>
<path d="M506.936 503.815L421.914 499.964L509.867 499.519C508.882 500.941 507.903 502.373 506.936 503.815Z" fill="#B68E14"/>
<path d="M291.77 430.932C301.246 452.471 316.287 471.057 329.816 491.04L509.787 499.191C524.376 480.247 540.455 463.037 551.614 442.7L291.77 430.932Z" fill="#29A84A"/>
<path d="M458.877 634.745H445.775C449.751 633.283 453.559 631.52 457.172 629.478H467.124C464.505 631.401 461.753 633.16 458.877 634.745ZM389.232 634.745H381.437C378.691 633.165 376.057 631.407 373.548 629.478H378.311C381.779 631.525 385.429 633.288 389.232 634.745ZM477.292 620.451C475.737 619.687 473.712 619.163 471.455 618.997C478.955 611.968 484.957 603.38 489.007 593.571L493.372 593.205C489.957 603.607 484.436 612.809 477.292 620.451ZM363.548 620.132C359.557 615.612 356.081 610.529 353.215 604.94L353.493 604.916C356.823 610.38 360.771 615.281 365.241 619.565C364.639 619.727 364.072 619.917 363.548 620.132Z" fill="#B2AFAD"/>
<path d="M424.143 639.491C455.763 636.843 481.462 617.213 490.942 588.343L350.784 600.076C364.588 626.997 392.522 642.137 424.143 639.491Z" fill="#E03124"/>
<path d="M549.215 330.729L539.303 330.091C538.559 328.783 537.792 327.489 537.003 326.208L310.915 313.504C337.232 281.576 379.335 262.44 423.912 262.44C427.231 262.44 430.571 262.547 433.911 262.761C482.529 265.891 526.057 292.463 549.215 330.729Z" fill="#B2AFAD"/>
<path d="M539.303 330.091L309.461 315.3C309.94 314.696 310.424 314.097 310.915 313.504L537.003 326.208C537.792 327.489 538.559 328.783 539.303 330.091Z" fill="#174E7E"/>
<path d="M431.48 257.899C382.435 254.743 335.149 275.02 307.029 310.437L546.784 325.867C523.625 287.6 480.097 261.028 431.48 257.899Z" fill="#4B298C"/>
<path d="M347.328 601.795C342.999 592.363 340.38 581.625 339.907 569.824C339.783 566.703 340.867 561.669 341.724 556.12L484.884 550.383L490.372 550.355C491.524 555.76 492.778 560.66 492.899 563.693C493.251 572.452 492.332 580.723 490.332 588.393L350.784 600.076C351.051 600.597 351.322 601.112 351.6 601.624L347.328 601.795Z" fill="#B2AFAD"/>
<path d="M484.884 550.383L490.332 550.164C490.345 550.228 490.359 550.292 490.372 550.355L484.884 550.383Z" fill="#827E7B"/>
<path d="M351.6 601.624C351.322 601.112 351.051 600.597 350.784 600.076L490.332 588.393C489.638 591.057 488.811 593.649 487.863 596.163L351.6 601.624Z" fill="#A32319"/>
<path d="M337.476 564.961C337.949 576.761 340.567 587.5 344.897 596.932L485.432 591.3C489.111 581.547 490.941 570.631 490.468 558.831C490.345 555.761 489.063 550.781 487.9 545.301L339.292 551.257C338.435 556.805 337.351 561.84 337.476 564.961Z" fill="#ED5F18"/>
<path d="M420.065 700C394.244 700 372.545 686.905 366.376 669.18H473.756C467.587 686.905 445.888 700 420.065 700Z" fill="#B2AFAD"/>
<path d="M469.911 663.517H370.221C364.403 663.517 359.685 661.159 359.685 658.249C359.685 655.34 364.403 652.981 370.221 652.981H469.911C475.729 652.981 480.447 655.34 480.447 658.249C480.447 661.159 475.729 663.517 469.911 663.517Z" fill="#B2AFAD"/>
<path d="M469.911 645.281H370.221C364.403 645.281 359.685 642.923 359.685 640.013C359.685 637.104 364.403 634.745 370.221 634.745H381.437C392.596 641.168 405.595 644.65 419.491 644.65C421.828 644.65 424.191 644.553 426.573 644.353C438.337 643.368 449.283 640.032 458.877 634.745H469.911C475.729 634.745 480.447 637.104 480.447 640.013C480.447 642.923 475.729 645.281 469.911 645.281Z" fill="#B2AFAD"/>
<path d="M419.491 644.65C405.595 644.65 392.596 641.168 381.438 634.745H389.232C397.835 638.043 407.223 639.788 417.059 639.788C419.396 639.788 421.759 639.689 424.143 639.491C431.743 638.853 439.002 637.236 445.775 634.745H458.878C449.283 640.032 438.337 643.368 426.573 644.353C424.191 644.553 421.828 644.65 419.491 644.65Z" fill="#827E7B"/>
<path d="M417.059 639.788C407.223 639.788 397.835 638.043 389.232 634.745H445.775C439.002 637.236 431.743 638.853 424.143 639.491C421.759 639.689 419.396 639.788 417.059 639.788Z" fill="#A32319"/>
<path d="M469.911 629.478H467.124C470.792 626.781 474.195 623.762 477.292 620.451C479.239 621.405 480.447 622.737 480.447 624.209C480.447 627.119 475.729 629.478 469.911 629.478ZM373.548 629.478H370.221C364.403 629.478 359.685 627.119 359.685 624.209C359.685 622.565 361.191 621.099 363.548 620.132C366.595 623.583 369.941 626.705 373.548 629.478Z" fill="#B2AFAD"/>
<path d="M467.124 629.478H457.172C462.365 626.54 467.156 623.024 471.455 618.997C473.712 619.163 475.737 619.687 477.292 620.451C474.195 623.762 470.792 626.781 467.124 629.478ZM378.311 629.478H373.548C369.941 626.705 366.595 623.583 363.548 620.132C364.072 619.917 364.639 619.727 365.241 619.565C369.212 623.372 373.593 626.691 378.311 629.478Z" fill="#827E7B"/>
<path d="M457.172 629.478H378.311C373.593 626.691 369.212 623.372 365.241 619.565C366.724 619.167 368.42 618.941 370.221 618.941H469.911C470.435 618.941 470.949 618.96 471.455 618.997C467.156 623.024 462.365 626.54 457.172 629.478Z" fill="#A32319"/>
<path d="M417.635 696.353C443.456 696.353 465.155 683.259 471.324 665.532H363.944C370.113 683.259 391.812 696.353 417.635 696.353Z" fill="#C9C8C7"/>
<path d="M478.015 654.603C478.015 657.512 473.297 659.871 467.479 659.871H367.791C361.971 659.871 357.253 657.512 357.253 654.603C357.253 651.692 361.971 649.333 367.791 649.333H467.479C473.297 649.333 478.015 651.692 478.015 654.603Z" fill="#C9C8C7"/>
<path d="M478.015 636.367C478.015 639.276 473.297 641.635 467.479 641.635H367.791C361.971 641.635 357.253 639.276 357.253 636.367C357.253 633.457 361.971 631.099 367.791 631.099H467.479C473.297 631.099 478.015 633.457 478.015 636.367Z" fill="#C9C8C7"/>
<path d="M478.015 620.561C478.015 623.472 473.297 625.831 467.479 625.831H367.791C361.971 625.831 357.253 623.472 357.253 620.561C357.253 617.652 361.971 615.293 367.791 615.293H467.479C473.297 615.293 478.015 617.652 478.015 620.561Z" fill="#C9C8C7"/>
<path d="M214.276 502.411C209.189 502.411 203.693 498.179 200.9 491.601C197.475 483.535 199.413 474.992 205.23 472.523L262.012 448.411C263.087 447.955 264.219 447.737 265.371 447.737C270.459 447.737 275.955 451.969 278.747 458.547C282.173 466.613 280.235 475.156 274.417 477.625L217.635 501.737C216.56 502.193 215.429 502.411 214.276 502.411Z" fill="#D2D0CF"/>
<path d="M230.415 376.055C230.056 376.055 229.695 376.041 229.332 376.012L168.884 371.207C160.923 370.575 155.021 363.133 155.701 354.587C156.349 346.431 162.758 340.215 170.261 340.215C170.62 340.215 170.981 340.228 171.344 340.257L231.792 345.063C239.752 345.695 245.655 353.136 244.975 361.683C244.327 369.84 237.917 376.055 230.415 376.055Z" fill="#D2D0CF"/>
<path d="M302.987 274.461C298.289 274.461 293.635 272.413 290.46 268.471L248.177 215.976C242.609 209.063 243.7 198.945 250.613 193.377C253.583 190.984 257.145 189.821 260.684 189.821C265.381 189.821 270.036 191.869 273.212 195.812L315.493 248.307C321.061 255.22 319.971 265.337 313.059 270.905C310.088 273.297 306.525 274.461 302.987 274.461Z" fill="#D2D0CF"/>
<path d="M420.066 242.648C410.646 242.648 403.008 235.011 403.008 225.591V154.052C403.008 144.631 410.646 136.995 420.066 136.995C429.487 136.995 437.124 144.631 437.124 154.052V225.591C437.124 235.011 429.487 242.648 420.066 242.648Z" fill="#D2D0CF"/>
<path d="M630.586 495.617C627.652 495.617 624.584 494.928 621.664 493.479L580.963 473.275C572.167 468.909 568.051 459.299 571.768 451.809L572.516 450.303C574.999 445.3 580.351 442.509 586.251 442.509C589.184 442.509 592.254 443.199 595.174 444.649L635.873 464.852C644.669 469.219 648.787 478.829 645.07 486.319L644.322 487.825C641.838 492.827 636.487 495.617 630.586 495.617Z" fill="#D2D0CF"/>
<path d="M602.366 371.528C595.04 371.528 588.824 366.457 588.123 359.6L587.44 352.936C586.687 345.573 592.574 338.941 600.59 338.121L663.363 331.695C663.912 331.639 664.458 331.612 664.996 331.612C672.323 331.612 678.537 336.683 679.24 343.539L679.922 350.204C680.676 357.565 674.789 364.199 666.773 365.019L604 371.444C603.451 371.5 602.906 371.528 602.366 371.528Z" fill="#D2D0CF"/>
<path d="M540.993 278.703C538.033 278.703 534.905 277.62 532.276 275.441L528.479 272.296C523.086 267.829 521.831 260.445 525.675 255.804L566.957 205.968C568.927 203.589 571.855 202.393 574.965 202.393C577.927 202.393 581.053 203.476 583.683 205.653L587.48 208.8C592.873 213.267 594.129 220.651 590.285 225.291L549.003 275.128C547.032 277.507 544.105 278.703 540.993 278.703Z" fill="#D2D0CF"/>
<path d="M258.365 443.548C264.181 441.079 271.675 445.616 275.1 453.684C278.525 461.751 276.587 470.293 270.771 472.763L213.988 496.875C208.171 499.344 200.679 494.807 197.253 486.739C193.828 478.672 195.766 470.129 201.583 467.66L258.365 443.548Z" fill="#E03124"/>
<path d="M228.145 340.2C236.105 340.832 242.008 348.273 241.328 356.82C240.649 365.367 233.645 371.783 225.684 371.149L165.237 366.344C157.277 365.712 151.374 358.271 152.053 349.724C152.733 341.177 159.737 334.761 167.697 335.395L228.145 340.2Z" fill="#ED5F18"/>
<path d="M311.847 243.444C317.415 250.357 316.324 260.475 309.411 266.043C302.499 271.611 292.38 270.52 286.812 263.608L244.531 211.113C238.963 204.2 240.053 194.083 246.965 188.513C253.879 182.947 263.996 184.036 269.564 190.949L311.847 243.444Z" fill="#FAC51C"/>
<path d="M433.476 220.728C433.476 230.148 425.84 237.785 416.419 237.785C406.997 237.785 399.361 230.148 399.361 220.728V149.189C399.361 139.768 406.997 132.131 416.419 132.131C425.84 132.131 433.476 139.768 433.476 149.189V220.728Z" fill="#29A84A"/>
<path d="M577.316 468.412C568.52 464.047 564.403 454.436 568.122 446.947L568.87 445.44C572.587 437.951 582.731 435.42 591.527 439.785L632.227 459.989C641.023 464.356 645.14 473.967 641.422 481.455L640.674 482.961C636.956 490.451 626.812 492.983 618.016 488.616L577.316 468.412Z" fill="#4B298C"/>
<path d="M600.352 366.581C592.337 367.401 585.229 362.099 584.475 354.737L583.793 348.073C583.04 340.711 588.927 334.079 596.941 333.257L659.716 326.832C667.731 326.012 674.839 331.315 675.592 338.676L676.275 345.341C677.028 352.703 671.141 359.336 663.127 360.156L600.352 366.581Z" fill="#206DB2"/>
<path d="M545.355 270.265C541.511 274.907 534.023 275.047 528.629 270.579L524.832 267.433C519.439 262.967 518.183 255.583 522.027 250.941L563.309 201.104C567.153 196.464 574.643 196.324 580.036 200.791L583.833 203.936C589.227 208.404 590.481 215.788 586.637 220.428L545.355 270.265Z" fill="#3FABD1"/>
</g>
<defs>
<linearGradient id="paint0_linear_2205_59" x1="416" y1="0" x2="416" y2="832" gradientUnits="userSpaceOnUse">
<stop stop-color="#F3D6FA"/>
<stop offset="1" stop-color="#578CFF"/>
</linearGradient>
</defs>
</svg>
