<svg width="528" height="568" viewBox="0 0 528 568" fill="none" xmlns="http://www.w3.org/2000/svg">
<path d="M139.124 311.653C138.281 310.053 137.469 308.432 136.693 306.791L143.484 306.621C144.249 308.259 145.045 309.88 145.869 311.485L139.124 311.653ZM253.192 308.821L182.977 305.641L396.723 300.335C402.279 288.275 406.164 275.309 407.083 260.595C407.452 254.683 407.384 248.877 406.916 243.196L408.841 243.148C409.739 250.383 409.989 257.831 409.513 265.457C408.596 280.172 404.711 293.137 399.153 305.199L253.192 308.821Z" fill="#B2AFAD"/>
<path d="M407.083 260.595C407.559 252.968 407.308 245.52 406.411 238.285L124.079 245.293C123.552 252.537 123.663 259.987 124.476 267.611C126.043 282.308 130.525 295.075 136.692 306.791L396.723 300.335C402.279 288.275 406.164 275.309 407.083 260.595Z" fill="#3FABD1"/>
<path d="M175.305 244.023L123.432 241.108C123.675 239.535 123.948 237.975 124.251 236.427L233.643 242.575L175.305 244.023ZM401.587 238.405C399.781 227.192 396.38 216.464 391.619 206.395C396.899 216.401 400.816 227.123 403.121 238.367L401.587 238.405Z" fill="#B2AFAD"/>
<path d="M405.405 256.952L175.305 244.023L233.643 242.575L402.973 252.089C402.777 247.459 402.311 242.892 401.587 238.405L403.121 238.367C404.363 244.42 405.137 250.624 405.405 256.952Z" fill="#2E7B94"/>
<path d="M385.003 194.208L145.131 180.729C132.791 196.533 124.244 215.283 121 236.244L402.973 252.089C402.083 231.084 395.62 211.433 385.003 194.208Z" fill="#206DB2"/>
<path d="M196.779 419.072C197.083 417.479 197.368 415.841 197.601 414.193L343.072 413.456C341.653 405.395 340.528 396.276 343.527 390.645C346.899 384.313 350.627 378.273 354.537 372.411L360.297 372.381C355.175 379.775 350.275 387.401 345.957 395.508C342.96 401.139 344.085 410.257 345.504 418.319L338.372 418.355C338.359 418.292 338.345 418.228 338.332 418.164L332.884 418.383L196.779 419.072ZM194.688 394.483C190.224 387.096 185.273 380.104 180.145 373.293L181.312 373.288C185.556 379.119 189.621 385.116 193.321 391.407C193.887 392.368 194.337 393.397 194.688 394.483Z" fill="#B2AFAD"/>
<path d="M193.321 391.407C196.911 397.508 195.839 406.385 194.347 414.209L343.072 413.456C341.653 405.395 340.528 396.276 343.527 390.645C347.844 382.537 352.744 374.912 357.867 367.519L177.713 368.431C183.253 375.788 188.587 383.356 193.321 391.407Z" fill="#FAC51C"/>
<path d="M360.219 372.055L354.936 371.815C355.903 370.373 356.881 368.941 357.867 367.519L269.913 367.964L180.248 363.903C168.353 346.336 155.292 329.848 145.869 311.485L253.192 308.821L402.044 315.564C390.885 335.9 374.808 353.111 360.219 372.055Z" fill="#B2AFAD"/>
<path d="M145.869 311.485C145.045 309.88 144.249 308.259 143.484 306.621L182.977 305.641L253.192 308.821L145.869 311.485Z" fill="#827E7B"/>
<path d="M143.484 306.621C143.045 305.685 142.617 304.743 142.201 303.795L182.977 305.641L143.484 306.621Z" fill="#2E7B94"/>
<path d="M354.936 371.815L269.914 367.964L357.867 367.519C356.881 368.941 355.903 370.373 354.936 371.815Z" fill="#B68E14"/>
<path d="M139.769 298.932C149.245 320.471 164.287 339.057 177.816 359.04L357.787 367.191C372.376 348.247 388.455 331.037 399.613 310.7L139.769 298.932Z" fill="#29A84A"/>
<path d="M306.877 502.745H293.775C297.751 501.283 301.559 499.52 305.172 497.478H315.124C312.505 499.402 309.753 501.16 306.877 502.745ZM237.232 502.745H229.437C226.691 501.165 224.057 499.407 221.548 497.478H226.311C229.779 499.526 233.429 501.288 237.232 502.745ZM325.292 488.451C323.737 487.687 321.712 487.163 319.455 486.997C326.955 479.968 332.957 471.38 337.007 461.571L341.372 461.205C337.957 471.607 332.436 480.809 325.292 488.451ZM211.548 488.132C207.557 483.612 204.081 478.529 201.215 472.94L201.493 472.916C204.823 478.38 208.771 483.281 213.241 487.565C212.639 487.727 212.072 487.917 211.548 488.132Z" fill="#B2AFAD"/>
<path d="M272.143 507.491C303.763 504.843 329.461 485.213 338.941 456.343L198.784 468.076C212.588 494.997 240.521 510.137 272.143 507.491Z" fill="#E03124"/>
<path d="M397.215 198.729L387.303 198.091C386.559 196.783 385.792 195.489 385.003 194.208L158.915 181.504C185.232 149.576 227.335 130.44 271.912 130.44C275.231 130.44 278.571 130.547 281.911 130.761C330.529 133.891 374.057 160.463 397.215 198.729Z" fill="#B2AFAD"/>
<path d="M387.303 198.091L157.461 183.3C157.94 182.696 158.424 182.097 158.915 181.504L385.003 194.208C385.792 195.489 386.559 196.783 387.303 198.091Z" fill="#174E7E"/>
<path d="M279.48 125.899C230.435 122.743 183.149 143.02 155.029 178.437L394.784 193.867C371.625 155.6 328.097 129.028 279.48 125.899Z" fill="#4B298C"/>
<path d="M195.328 469.795C190.999 460.363 188.38 449.625 187.907 437.824C187.783 434.703 188.867 429.669 189.724 424.12L332.884 418.383L338.372 418.355C339.524 423.76 340.777 428.66 340.899 431.693C341.251 440.452 340.332 448.723 338.332 456.393L198.784 468.076C199.051 468.597 199.321 469.112 199.6 469.624L195.328 469.795Z" fill="#B2AFAD"/>
<path d="M332.884 418.383L338.332 418.164C338.345 418.228 338.359 418.292 338.372 418.355L332.884 418.383Z" fill="#827E7B"/>
<path d="M199.6 469.624C199.321 469.112 199.051 468.597 198.784 468.076L338.332 456.393C337.637 459.057 336.811 461.649 335.863 464.163L199.6 469.624Z" fill="#A32319"/>
<path d="M185.476 432.961C185.949 444.761 188.567 455.5 192.897 464.932L333.432 459.3C337.111 449.547 338.941 438.631 338.468 426.831C338.345 423.761 337.063 418.781 335.9 413.301L187.292 419.257C186.435 424.805 185.351 429.84 185.476 432.961Z" fill="#ED5F18"/>
<path d="M268.065 568C242.244 568 220.545 554.905 214.376 537.18H321.756C315.587 554.905 293.888 568 268.065 568Z" fill="#B2AFAD"/>
<path d="M317.911 531.517H218.221C212.403 531.517 207.685 529.159 207.685 526.249C207.685 523.34 212.403 520.981 218.221 520.981H317.911C323.729 520.981 328.447 523.34 328.447 526.249C328.447 529.159 323.729 531.517 317.911 531.517Z" fill="#B2AFAD"/>
<path d="M317.911 513.281H218.221C212.403 513.281 207.685 510.923 207.685 508.014C207.685 505.104 212.403 502.745 218.221 502.745H229.437C240.596 509.168 253.595 512.65 267.491 512.65C269.828 512.65 272.191 512.553 274.573 512.353C286.337 511.368 297.283 508.032 306.877 502.745H317.911C323.729 502.745 328.447 505.104 328.447 508.014C328.447 510.923 323.729 513.281 317.911 513.281Z" fill="#B2AFAD"/>
<path d="M267.491 512.65C253.595 512.65 240.596 509.168 229.437 502.745H237.232C245.835 506.043 255.223 507.788 265.059 507.788C267.396 507.788 269.759 507.689 272.143 507.491C279.743 506.853 287.001 505.236 293.775 502.745H306.877C297.283 508.032 286.337 511.368 274.573 512.353C272.191 512.553 269.828 512.65 267.491 512.65Z" fill="#827E7B"/>
<path d="M265.059 507.788C255.223 507.788 245.835 506.043 237.232 502.745H293.775C287.001 505.236 279.743 506.853 272.143 507.49C269.759 507.689 267.396 507.788 265.059 507.788Z" fill="#A32319"/>
<path d="M317.911 497.478H315.124C318.792 494.781 322.195 491.762 325.292 488.451C327.239 489.405 328.447 490.737 328.447 492.209C328.447 495.119 323.729 497.478 317.911 497.478ZM221.548 497.478H218.221C212.403 497.478 207.685 495.119 207.685 492.209C207.685 490.565 209.191 489.099 211.548 488.132C214.595 491.583 217.941 494.705 221.548 497.478Z" fill="#B2AFAD"/>
<path d="M315.124 497.478H305.172C310.365 494.54 315.156 491.024 319.455 486.997C321.712 487.163 323.737 487.687 325.292 488.451C322.195 491.762 318.792 494.781 315.124 497.478ZM226.311 497.478H221.548C217.941 494.705 214.595 491.583 211.548 488.132C212.072 487.917 212.639 487.727 213.241 487.565C217.212 491.372 221.593 494.69 226.311 497.478Z" fill="#827E7B"/>
<path d="M305.172 497.478H226.311C221.593 494.69 217.212 491.372 213.241 487.565C214.724 487.167 216.42 486.941 218.221 486.941H317.911C318.435 486.941 318.949 486.96 319.455 486.997C315.156 491.024 310.365 494.54 305.172 497.478Z" fill="#A32319"/>
<path d="M265.635 564.353C291.456 564.353 313.155 551.259 319.324 533.532H211.944C218.113 551.259 239.812 564.353 265.635 564.353Z" fill="#C9C8C7"/>
<path d="M326.015 522.603C326.015 525.512 321.297 527.871 315.479 527.871H215.791C209.971 527.871 205.253 525.512 205.253 522.603C205.253 519.692 209.971 517.333 215.791 517.333H315.479C321.297 517.333 326.015 519.692 326.015 522.603Z" fill="#C9C8C7"/>
<path d="M326.015 504.367C326.015 507.276 321.297 509.635 315.479 509.635H215.791C209.971 509.635 205.253 507.276 205.253 504.367C205.253 501.457 209.971 499.099 215.791 499.099H315.479C321.297 499.099 326.015 501.457 326.015 504.367Z" fill="#C9C8C7"/>
<path d="M326.015 488.561C326.015 491.472 321.297 493.831 315.479 493.831H215.791C209.971 493.831 205.253 491.472 205.253 488.561C205.253 485.652 209.971 483.293 215.791 483.293H315.479C321.297 483.293 326.015 485.652 326.015 488.561Z" fill="#C9C8C7"/>
<path d="M62.2761 370.411C57.1892 370.411 51.6933 366.179 48.9001 359.601C45.4745 351.535 47.4131 342.992 53.2297 340.523L110.012 316.411C111.087 315.955 112.219 315.737 113.371 315.737C118.459 315.737 123.955 319.969 126.747 326.547C130.173 334.613 128.235 343.156 122.417 345.625L65.6348 369.737C64.5601 370.193 63.4295 370.411 62.2761 370.411Z" fill="#D2D0CF"/>
<path d="M78.4148 244.055C78.0561 244.055 77.6948 244.041 77.3321 244.012L16.8839 239.207C8.92346 238.575 3.02146 231.133 3.70053 222.587C4.34906 214.431 10.7579 208.215 18.2611 208.215C18.6199 208.215 18.9808 208.228 19.3439 208.257L79.7921 213.063C87.7521 213.695 93.6548 221.136 92.9748 229.683C92.3268 237.84 85.9175 244.055 78.4148 244.055Z" fill="#D2D0CF"/>
<path d="M150.987 142.461C146.289 142.461 141.635 140.413 138.46 136.471L96.1775 83.9761C90.6095 77.0628 91.7001 66.9454 98.6135 61.3774C101.583 58.9841 105.145 57.8215 108.684 57.8215C113.381 57.8215 118.036 59.8694 121.212 63.8121L163.493 116.307C169.061 123.22 167.971 133.337 161.059 138.905C158.088 141.297 154.525 142.461 150.987 142.461Z" fill="#D2D0CF"/>
<path d="M268.065 110.648C258.645 110.648 251.008 103.011 251.008 93.5906V22.052C251.008 12.6306 258.645 4.99462 268.065 4.99462C277.487 4.99462 285.124 12.6306 285.124 22.052V93.5906C285.124 103.011 277.487 110.648 268.065 110.648Z" fill="#D2D0CF"/>
<path d="M478.585 363.617C475.652 363.617 472.584 362.928 469.664 361.479L428.963 341.275C420.167 336.909 416.051 327.299 419.768 319.809L420.516 318.303C422.999 313.3 428.351 310.509 434.251 310.509C437.184 310.509 440.253 311.199 443.173 312.649L483.873 332.852C492.669 337.219 496.787 346.829 493.069 354.319L492.321 355.825C489.837 360.827 484.487 363.617 478.585 363.617Z" fill="#D2D0CF"/>
<path d="M450.365 239.528C443.04 239.528 436.824 234.457 436.123 227.6L435.44 220.936C434.687 213.573 440.573 206.941 448.589 206.121L511.363 199.695C511.912 199.639 512.457 199.612 512.996 199.612C520.323 199.612 526.537 204.683 527.24 211.539L527.921 218.204C528.676 225.565 522.789 232.199 514.773 233.019L452 239.444C451.451 239.5 450.905 239.528 450.365 239.528Z" fill="#D2D0CF"/>
<path d="M388.993 146.703C386.033 146.703 382.905 145.62 380.276 143.441L376.479 140.296C371.086 135.829 369.831 128.445 373.675 123.804L414.957 73.9679C416.927 71.5893 419.855 70.3933 422.965 70.3933C425.927 70.3933 429.053 71.476 431.683 73.6533L435.48 76.8C440.873 81.2666 442.129 88.6506 438.285 93.2906L397.003 143.128C395.032 145.507 392.105 146.703 388.993 146.703Z" fill="#D2D0CF"/>
<path d="M106.365 311.548C112.181 309.079 119.675 313.616 123.1 321.684C126.525 329.751 124.587 338.293 118.771 340.763L61.9881 364.875C56.1709 367.344 48.6787 362.807 45.2532 354.739C41.8277 346.672 43.7657 338.129 49.5829 335.66L106.365 311.548Z" fill="#E03124"/>
<path d="M76.1455 208.2C84.1055 208.832 90.0081 216.273 89.3281 224.82C88.6495 233.367 81.6455 239.783 73.6841 239.149L13.2365 234.344C5.27667 233.712 -0.625995 226.271 0.053205 217.724C0.732938 209.177 7.73653 202.761 15.6969 203.395L76.1455 208.2Z" fill="#ED5F18"/>
<path d="M159.847 111.444C165.415 118.357 164.324 128.475 157.411 134.043C150.499 139.611 140.38 138.52 134.812 131.608L92.5308 79.1133C86.9628 72.2 88.0535 62.0827 94.9655 56.5133C101.879 50.9467 111.996 52.036 117.564 58.9493L159.847 111.444Z" fill="#FAC51C"/>
<path d="M281.476 88.7281C281.476 98.1481 273.84 105.785 264.419 105.785C254.997 105.785 247.361 98.1481 247.361 88.7281V17.1894C247.361 7.76808 254.997 0.130752 264.419 0.130752C273.84 0.130752 281.476 7.76808 281.476 17.1894V88.7281Z" fill="#29A84A"/>
<path d="M425.316 336.412C416.52 332.047 412.403 322.436 416.121 314.947L416.869 313.44C420.587 305.951 430.731 303.42 439.527 307.785L480.227 327.989C489.023 332.356 493.14 341.967 489.421 349.455L488.673 350.961C484.956 358.451 474.812 360.983 466.016 356.616L425.316 336.412Z" fill="#4B298C"/>
<path d="M448.352 234.581C440.337 235.401 433.229 230.099 432.475 222.737L431.793 216.073C431.04 208.711 436.927 202.079 444.941 201.257L507.716 194.832C515.731 194.012 522.839 199.315 523.592 206.676L524.275 213.341C525.028 220.703 519.141 227.336 511.127 228.156L448.352 234.581Z" fill="#206DB2"/>
<path d="M393.355 138.265C389.511 142.907 382.023 143.047 376.629 138.579L372.832 135.433C367.439 130.967 366.183 123.583 370.027 118.941L411.309 69.1039C415.153 64.4639 422.643 64.324 428.036 68.7907L431.833 71.936C437.227 76.404 438.481 83.788 434.637 88.428L393.355 138.265Z" fill="#3FABD1"/>
</svg>
