<?xml version="1.0" encoding="UTF-8" standalone="no"?>
<svg
   xmlns:dc="http://purl.org/dc/elements/1.1/"
   xmlns:cc="http://creativecommons.org/ns#"
   xmlns:rdf="http://www.w3.org/1999/02/22-rdf-syntax-ns#"
   xmlns:svg="http://www.w3.org/2000/svg"
   xmlns="http://www.w3.org/2000/svg"
   viewBox="0 0 666.66669 666.66669"
   height="666.66669"
   width="666.66669"
   xml:space="preserve"
   id="svg2"
   version="1.1"><metadata
     id="metadata8"><rdf:RDF><cc:Work
         rdf:about=""><dc:format>image/svg+xml</dc:format><dc:type
           rdf:resource="http://purl.org/dc/dcmitype/StillImage" /></cc:Work></rdf:RDF></metadata><defs
     id="defs6" /><g
     transform="matrix(1.3333333,0,0,-1.3333333,0,666.66667)"
     id="g10"><g
       transform="scale(0.1)"
       id="g12"><path
         id="path14"
         style="fill:#f4f4f4;fill-opacity:1;fill-rule:nonzero;stroke:none"
         d="M 0,0 H 5000 V 5000 H 0 Z" /><path
         id="path16"
         style="fill:#b2afad;fill-opacity:1;fill-rule:nonzero;stroke:none"
         d="m 1586.95,2343.08 c -6.32,12 -12.41,24.16 -18.23,36.47 l 50.93,1.27 c 5.74,-12.28 11.71,-24.44 17.89,-36.48 l -50.59,-1.26 m 855.51,21.24 -526.61,23.85 1603.09,39.8 c 41.67,90.45 70.81,187.69 77.7,298.05 2.77,44.34 2.26,87.88 -1.25,130.49 l 14.44,0.36 c 6.73,-54.26 8.61,-110.12 5.04,-167.32 -6.88,-110.36 -36.02,-207.6 -77.7,-298.06 l -1094.71,-27.17" /><path
         id="path18"
         style="fill:#3fabd1;fill-opacity:1;fill-rule:nonzero;stroke:none"
         d="m 3596.64,2726.02 c 3.57,57.2 1.69,113.06 -5.04,167.32 l -2117.49,-52.56 c -3.95,-54.33 -3.12,-110.2 2.98,-167.38 11.75,-110.23 45.37,-205.98 91.62,-293.85 l 1950.23,48.42 c 41.67,90.45 70.81,187.69 77.7,298.05" /><path
         id="path20"
         style="fill:#b2afad;fill-opacity:1;fill-rule:nonzero;stroke:none"
         d="m 1858.31,2850.31 -389.05,21.86 c 1.82,11.8 3.87,23.5 6.14,35.11 l 820.44,-46.11 -437.53,-10.86 m 1697.11,42.13 c -13.54,84.1 -39.05,164.56 -74.76,240.08 39.6,-75.05 68.98,-155.46 86.27,-239.79 l -11.51,-0.29" /><path
         id="path22"
         style="fill:#2e7b94;fill-opacity:1;fill-rule:nonzero;stroke:none"
         d="m 3584.06,2753.34 -1725.75,96.97 437.53,10.86 1269.98,-71.36 c -1.47,34.73 -4.97,68.98 -10.4,102.63 l 11.51,0.29 c 9.31,-45.4 15.12,-91.93 17.13,-139.39" /><path
         id="path24"
         style="fill:#206db2;fill-opacity:1;fill-rule:nonzero;stroke:none"
         d="M 3431.04,3223.92 1632,3325.01 c -92.55,-118.53 -156.65,-259.15 -180.98,-416.36 l 2114.8,-118.84 c -6.68,157.54 -55.15,304.92 -134.78,434.11" /><path
         id="path26"
         style="fill:#b2afad;fill-opacity:1;fill-rule:nonzero;stroke:none"
         d="m 2019.36,1537.44 c 2.28,11.95 4.42,24.23 6.17,36.59 l 1091.03,5.53 c -10.64,60.46 -19.08,128.85 3.41,171.08 25.29,47.49 53.25,92.79 82.58,136.76 l 43.2,0.22 c -38.42,-55.45 -75.17,-112.65 -107.55,-173.45 -22.48,-42.23 -14.04,-110.62 -3.4,-171.08 l -53.49,-0.27 c -0.1,0.47 -0.2,0.95 -0.3,1.43 l -40.86,-1.64 -1020.79,-5.17 m -15.68,184.42 c -33.48,55.4 -70.61,107.84 -109.07,158.92 l 8.75,0.04 c 31.83,-43.73 62.32,-88.71 90.07,-135.89 4.24,-7.21 7.62,-14.93 10.25,-23.07" /><path
         id="path28"
         style="fill:#fac51c;fill-opacity:1;fill-rule:nonzero;stroke:none"
         d="m 1993.43,1744.93 c 26.92,-45.76 18.88,-112.34 7.69,-171.02 l 1115.44,5.65 c -10.64,60.46 -19.08,128.85 3.41,171.08 32.38,60.81 69.13,118 107.55,173.45 l -1351.15,-6.84 c 41.55,-55.18 81.55,-111.94 117.06,-172.32" /><path
         id="path30"
         style="fill:#b2afad;fill-opacity:1;fill-rule:nonzero;stroke:none"
         d="m 3245.16,1890.07 -39.62,1.8 c 7.25,10.81 14.59,21.55 21.98,32.22 l -659.65,-3.34 -672.49,30.46 c -89.21,131.75 -187.17,255.41 -257.84,393.13 l 804.92,19.98 1116.39,-50.57 c -83.69,-152.52 -204.27,-281.6 -313.69,-423.68" /><path
         id="path32"
         style="fill:#827e7b;fill-opacity:1;fill-rule:nonzero;stroke:none"
         d="m 1637.54,2344.34 c -6.18,12.04 -12.15,24.2 -17.89,36.48 l 296.2,7.35 526.61,-23.85 -804.92,-19.98" /><path
         id="path34"
         style="fill:#2e7b94;fill-opacity:1;fill-rule:nonzero;stroke:none"
         d="m 1619.65,2380.82 c -3.29,7.02 -6.5,14.09 -9.62,21.2 l 305.82,-13.85 -296.2,-7.35" /><path
         id="path36"
         style="fill:#b68e14;fill-opacity:1;fill-rule:nonzero;stroke:none"
         d="m 3205.54,1891.87 -637.67,28.88 659.65,3.34 c -7.39,-10.67 -14.73,-21.41 -21.98,-32.22" /><path
         id="path38"
         style="fill:#29a84a;fill-opacity:1;fill-rule:nonzero;stroke:none"
         d="m 1591.79,2438.49 c 71.07,-161.54 183.88,-300.94 285.35,-450.81 l 1349.78,-61.13 c 109.42,142.08 230.01,271.15 313.7,423.68 l -1948.83,88.26" /><path
         id="path40"
         style="fill:#b2afad;fill-opacity:1;fill-rule:nonzero;stroke:none"
         d="m 2845.1,909.891 h -98.27 c 29.82,10.968 58.38,24.187 85.48,39.507 h 74.64 c -19.64,-14.429 -40.28,-27.617 -61.85,-39.507 m -522.34,0 h -58.46 c -20.6,11.851 -40.35,25.039 -59.17,39.507 h 35.72 c 26.01,-15.359 53.39,-28.578 81.91,-39.507 m 660.45,107.209 c -11.66,5.73 -26.85,9.66 -43.78,10.9 56.25,52.72 101.27,117.13 131.64,190.7 l 32.74,2.74 c -25.61,-78.01 -67.02,-147.03 -120.6,-204.34 m -853.08,2.39 c -29.93,33.9 -56,72.02 -77.5,113.94 l 2.09,0.18 c 24.97,-40.98 54.58,-77.74 88.11,-109.87 -4.52,-1.21 -8.77,-2.64 -12.7,-4.25" /><path
         id="path42"
         style="fill:#e03124;fill-opacity:1;fill-rule:nonzero;stroke:none"
         d="m 2584.59,874.301 c 237.15,19.859 429.89,167.079 500.99,383.609 l -1051.18,-88 C 2137.93,968 2347.43,854.449 2584.59,874.301" /><path
         id="path44"
         style="fill:#b2afad;fill-opacity:1;fill-rule:nonzero;stroke:none"
         d="m 3522.63,3190.01 -74.34,4.79 c -5.58,9.81 -11.33,19.51 -17.25,29.12 l -1695.66,95.28 c 197.38,239.46 513.15,382.98 847.48,382.98 24.89,0 49.94,-0.8 74.99,-2.41 364.64,-23.47 691.1,-222.76 864.78,-509.76" /><path
         id="path46"
         style="fill:#174e7e;fill-opacity:1;fill-rule:nonzero;stroke:none"
         d="m 3448.29,3194.8 -1723.81,110.93 c 3.59,4.53 7.22,9.02 10.9,13.47 l 1695.66,-95.28 c 5.92,-9.61 11.67,-19.31 17.25,-29.12" /><path
         id="path48"
         style="fill:#4b298c;fill-opacity:1;fill-rule:nonzero;stroke:none"
         d="m 2639.62,3736.24 c -367.84,23.67 -722.48,-128.41 -933.38,-394.04 L 3504.4,3226.48 c -173.69,287 -500.15,486.29 -864.78,509.76" /><path
         id="path50"
         style="fill:#b2afad;fill-opacity:1;fill-rule:nonzero;stroke:none"
         d="m 2008.48,1157.02 c -32.47,70.74 -52.11,151.27 -55.66,239.78 -0.93,23.41 7.2,61.16 13.63,102.78 l 1073.7,43.03 41.16,0.21 c 8.64,-40.54 18.04,-77.29 18.95,-100.04 2.64,-65.69 -4.25,-127.72 -19.25,-185.25 L 2034.4,1169.91 c 2,-3.91 4.03,-7.77 6.12,-11.61 l -32.04,-1.28" /><path
         id="path52"
         style="fill:#827e7b;fill-opacity:1;fill-rule:nonzero;stroke:none"
         d="m 3040.15,1542.61 40.86,1.64 c 0.1,-0.48 0.2,-0.96 0.3,-1.43 l -41.16,-0.21" /><path
         id="path54"
         style="fill:#a32319;fill-opacity:1;fill-rule:nonzero;stroke:none"
         d="m 2040.52,1158.3 c -2.09,3.84 -4.12,7.7 -6.12,11.61 l 1046.61,87.62 c -5.21,-19.98 -11.41,-39.42 -18.52,-58.27 L 2040.52,1158.3" /><path
         id="path56"
         style="fill:#ed5f18;fill-opacity:1;fill-rule:nonzero;stroke:none"
         d="m 1934.59,1433.27 c 3.55,-88.5 23.18,-169.04 55.66,-239.78 l 1054.01,42.24 c 27.59,73.15 41.32,155.02 37.77,243.52 -0.92,23.02 -10.54,60.37 -19.26,101.47 l -1114.56,-44.67 c -6.43,-41.61 -14.56,-79.37 -13.62,-102.78" /><path
         id="path58"
         style="fill:#b2afad;fill-opacity:1;fill-rule:nonzero;stroke:none"
         d="m 2554.01,420.48 c -193.66,0 -356.4,98.211 -402.67,231.149 h 805.35 C 2910.42,518.691 2747.68,420.48 2554.01,420.48" /><path
         id="path60"
         style="fill:#b2afad;fill-opacity:1;fill-rule:nonzero;stroke:none"
         d="m 2927.85,694.102 h -747.67 c -43.64,0 -79.02,17.687 -79.02,39.507 0,21.821 35.38,39.512 79.02,39.512 h 747.67 c 43.64,0 79.02,-17.691 79.02,-39.512 0,-21.82 -35.38,-39.507 -79.02,-39.507" /><path
         id="path62"
         style="fill:#b2afad;fill-opacity:1;fill-rule:nonzero;stroke:none"
         d="m 2927.85,830.871 h -747.67 c -43.64,0 -79.02,17.688 -79.02,39.508 0,21.82 35.38,39.512 79.02,39.512 h 84.12 c 83.69,-48.172 181.18,-74.289 285.4,-74.289 17.53,0 35.25,0.73 53.12,2.23 88.23,7.387 170.32,32.406 242.28,72.059 h 82.75 c 43.64,0 79.02,-17.692 79.02,-39.512 0,-21.82 -35.38,-39.508 -79.02,-39.508" /><path
         id="path64"
         style="fill:#827e7b;fill-opacity:1;fill-rule:nonzero;stroke:none"
         d="m 2549.7,835.602 c -104.22,0 -201.71,26.117 -285.4,74.289 h 58.46 c 64.52,-24.731 134.93,-37.821 208.7,-37.821 17.53,0 35.25,0.739 53.13,2.231 57,4.781 111.44,16.91 162.24,35.59 h 98.27 c -71.96,-39.653 -154.05,-64.672 -242.28,-72.059 -17.87,-1.5 -35.59,-2.23 -53.12,-2.23" /><path
         id="path66"
         style="fill:#a32319;fill-opacity:1;fill-rule:nonzero;stroke:none"
         d="m 2531.46,872.07 c -73.77,0 -144.18,13.09 -208.7,37.821 h 424.07 c -50.8,-18.68 -105.24,-30.809 -162.24,-35.59 -17.88,-1.492 -35.6,-2.231 -53.13,-2.231" /><path
         id="path68"
         style="fill:#b2afad;fill-opacity:1;fill-rule:nonzero;stroke:none"
         d="m 2927.85,949.398 h -20.9 c 27.51,20.223 53.03,42.864 76.26,67.702 14.6,-7.16 23.66,-17.151 23.66,-28.19 0,-21.82 -35.38,-39.512 -79.02,-39.512 m -722.72,0 h -24.95 c -43.64,0 -79.02,17.692 -79.02,39.512 0,12.33 11.29,23.33 28.97,30.58 22.85,-25.881 47.95,-49.299 75,-70.092" /><path
         id="path70"
         style="fill:#827e7b;fill-opacity:1;fill-rule:nonzero;stroke:none"
         d="m 2906.95,949.398 h -74.64 c 38.95,22.032 74.88,48.403 107.12,78.602 16.93,-1.24 32.12,-5.17 43.78,-10.9 -23.23,-24.838 -48.75,-47.479 -76.26,-67.702 m -666.1,0 h -35.72 c -27.05,20.793 -52.15,44.211 -75,70.092 3.93,1.61 8.18,3.04 12.7,4.25 29.78,-28.549 62.64,-53.439 98.02,-74.342" /><path
         id="path72"
         style="fill:#a32319;fill-opacity:1;fill-rule:nonzero;stroke:none"
         d="m 2832.31,949.398 h -591.46 c -35.38,20.903 -68.24,45.793 -98.02,74.342 11.12,2.99 23.84,4.68 37.35,4.68 h 747.67 c 3.93,0 7.79,-0.14 11.58,-0.42 -32.24,-30.199 -68.17,-56.57 -107.12,-78.602" /><path
         id="path74"
         style="fill:#c9c8c7;fill-opacity:1;fill-rule:nonzero;stroke:none"
         d="m 2535.78,447.832 c 193.66,0 356.4,98.207 402.67,231.156 H 2133.1 c 46.27,-132.949 209.01,-231.156 402.68,-231.156" /><path
         id="path76"
         style="fill:#c9c8c7;fill-opacity:1;fill-rule:nonzero;stroke:none"
         d="m 2988.63,760.961 c 0,-21.82 -35.38,-39.512 -79.02,-39.512 h -747.66 c -43.65,0 -79.03,17.692 -79.03,39.512 0,21.828 35.38,39.519 79.03,39.519 h 747.66 c 43.64,0 79.02,-17.691 79.02,-39.519" /><path
         id="path78"
         style="fill:#c9c8c7;fill-opacity:1;fill-rule:nonzero;stroke:none"
         d="m 2988.63,897.73 c 0,-21.82 -35.38,-39.511 -79.02,-39.511 h -747.66 c -43.65,0 -79.03,17.691 -79.03,39.511 0,21.821 35.38,39.508 79.03,39.508 h 747.66 c 43.64,0 79.02,-17.687 79.02,-39.508" /><path
         id="path80"
         style="fill:#c9c8c7;fill-opacity:1;fill-rule:nonzero;stroke:none"
         d="m 2988.63,1016.27 c 0,-21.829 -35.38,-39.52 -79.02,-39.52 h -747.66 c -43.65,0 -79.03,17.691 -79.03,39.52 0,21.82 35.38,39.51 79.03,39.51 h 747.66 c 43.64,0 79.02,-17.69 79.02,-39.51" /><path
         id="path82"
         style="fill:#d2d0cf;fill-opacity:1;fill-rule:nonzero;stroke:none"
         d="m 1010.59,1902.4 c -38.152,0 -79.371,31.74 -100.32,81.07 -25.692,60.5 -11.153,124.57 32.472,143.09 l 425.868,180.84 c 8.06,3.42 16.55,5.05 25.19,5.05 38.16,0 79.38,-31.74 100.32,-81.07 25.7,-60.5 11.16,-124.57 -32.47,-143.09 l -425.87,-180.84 c -8.06,-3.42 -16.54,-5.05 -25.19,-5.05" /><path
         id="path84"
         style="fill:#d2d0cf;fill-opacity:1;fill-rule:nonzero;stroke:none"
         d="m 1131.63,2850.07 c -2.69,0 -5.4,0.1 -8.12,0.32 l -453.362,36.04 c -59.703,4.74 -103.968,60.55 -98.875,124.65 4.864,61.17 52.93,107.79 109.204,107.79 2.691,0 5.398,-0.1 8.121,-0.32 l 453.362,-36.04 c 59.7,-4.74 103.97,-60.55 98.87,-124.65 -4.86,-61.18 -52.93,-107.79 -109.2,-107.79" /><path
         id="path86"
         style="fill:#d2d0cf;fill-opacity:1;fill-rule:nonzero;stroke:none"
         d="m 1675.92,3612.02 c -35.23,0 -70.14,15.36 -93.95,44.93 l -317.12,393.71 c -41.76,51.85 -33.58,127.73 18.27,169.49 22.27,17.95 48.99,26.67 75.53,26.67 35.23,0 70.14,-15.36 93.96,-44.93 l 317.11,-393.71 c 41.76,-51.85 33.58,-127.73 -18.26,-169.49 -22.28,-17.94 -49,-26.67 -75.54,-26.67" /><path
         id="path88"
         style="fill:#d2d0cf;fill-opacity:1;fill-rule:nonzero;stroke:none"
         d="m 2554.01,3850.62 c -70.65,0 -127.93,57.28 -127.93,127.93 v 536.54 c 0,70.66 57.28,127.93 127.93,127.93 70.66,0 127.94,-57.27 127.94,-127.93 v -536.54 c 0,-70.65 -57.28,-127.93 -127.94,-127.93" /><path
         id="path90"
         style="fill:#d2d0cf;fill-opacity:1;fill-rule:nonzero;stroke:none"
         d="m 4132.91,1953.35 c -22,0 -45.01,5.17 -66.91,16.04 l -305.26,151.53 c -65.97,32.74 -96.84,104.82 -68.96,160.99 l 5.61,11.3 c 18.62,37.52 58.76,58.45 103.01,58.45 22,0 45.02,-5.17 66.92,-16.05 l 305.25,-151.52 c 65.97,-32.75 96.85,-104.83 68.97,-161 l -5.61,-11.3 c -18.63,-37.51 -58.76,-58.44 -103.02,-58.44" /><path
         id="path92"
         style="fill:#d2d0cf;fill-opacity:1;fill-rule:nonzero;stroke:none"
         d="m 3921.26,2884.02 c -54.94,0 -101.56,38.03 -106.82,89.46 l -5.12,49.98 c -5.65,55.22 38.5,104.96 98.62,111.11 l 470.8,48.2 c 4.12,0.42 8.21,0.62 12.25,0.62 54.95,0 101.56,-38.03 106.83,-89.45 l 5.11,-49.99 c 5.66,-55.21 -38.49,-104.96 -98.61,-111.11 l -470.8,-48.19 c -4.12,-0.42 -8.21,-0.63 -12.26,-0.63" /><path
         id="path94"
         style="fill:#d2d0cf;fill-opacity:1;fill-rule:nonzero;stroke:none"
         d="m 3460.97,3580.21 c -22.2,0 -45.66,8.12 -65.38,24.46 l -28.48,23.59 c -40.45,33.5 -49.86,88.88 -21.03,123.69 l 309.62,373.77 c 14.77,17.84 36.73,26.81 60.06,26.81 22.21,0 45.66,-8.12 65.38,-24.45 l 28.48,-23.6 c 40.45,-33.5 49.87,-88.88 21.04,-123.68 l -309.62,-373.78 c -14.78,-17.84 -36.73,-26.81 -60.07,-26.81" /><path
         id="path96"
         style="fill:#e03124;fill-opacity:1;fill-rule:nonzero;stroke:none"
         d="m 1341.26,2343.87 c 43.62,18.52 99.82,-15.51 125.51,-76.02 25.69,-60.5 11.15,-124.57 -32.47,-143.09 l -425.87,-180.84 c -43.629,-18.52 -99.821,15.51 -125.512,76.02 -25.691,60.5 -11.156,124.57 32.473,143.09 l 425.869,180.84" /><path
         id="path98"
         style="fill:#ed5f18;fill-opacity:1;fill-rule:nonzero;stroke:none"
         d="m 1114.61,3118.98 c 59.7,-4.74 103.97,-60.55 98.87,-124.65 -5.09,-64.1 -57.62,-112.22 -117.33,-107.47 l -453.357,36.04 c -59.699,4.74 -103.969,60.55 -98.875,124.65 5.098,64.1 57.625,112.22 117.328,107.47 l 453.364,-36.04" /><path
         id="path100"
         style="fill:#fac51c;fill-opacity:1;fill-rule:nonzero;stroke:none"
         d="m 1742.37,3844.65 c 41.76,-51.85 33.58,-127.73 -18.27,-169.49 -51.84,-41.76 -127.73,-33.58 -169.49,18.26 l -317.11,393.71 c -41.76,51.85 -33.58,127.73 18.26,169.5 51.85,41.75 127.73,33.58 169.49,-18.27 l 317.12,-393.71" /><path
         id="path102"
         style="fill:#29a84a;fill-opacity:1;fill-rule:nonzero;stroke:none"
         d="m 2654.59,4015.02 c 0,-70.65 -57.27,-127.93 -127.93,-127.93 -70.66,0 -127.93,57.28 -127.93,127.93 v 536.54 c 0,70.66 57.27,127.94 127.93,127.94 70.66,0 127.93,-57.28 127.93,-127.94 v -536.54" /><path
         id="path104"
         style="fill:#4b298c;fill-opacity:1;fill-rule:nonzero;stroke:none"
         d="m 3733.39,2157.39 c -65.97,32.74 -96.85,104.82 -68.96,160.99 l 5.61,11.3 c 27.88,56.17 103.96,75.15 169.93,42.41 l 305.25,-151.53 c 65.97,-32.75 96.85,-104.83 68.96,-160.99 l -5.61,-11.3 c -27.88,-56.17 -103.96,-75.16 -169.93,-42.41 l -305.25,151.53" /><path
         id="path106"
         style="fill:#206db2;fill-opacity:1;fill-rule:nonzero;stroke:none"
         d="m 3906.16,2921.12 c -60.11,-6.15 -113.42,33.62 -119.08,88.83 l -5.11,49.98 c -5.65,55.22 38.5,104.96 98.61,111.12 l 470.81,48.19 c 60.11,6.15 113.42,-33.62 119.07,-88.83 l 5.12,-49.99 c 5.65,-55.21 -38.5,-104.96 -98.61,-111.11 l -470.81,-48.19" /><path
         id="path108"
         style="fill:#3fabd1;fill-opacity:1;fill-rule:nonzero;stroke:none"
         d="m 3493.68,3643.49 c -28.83,-34.81 -84.99,-35.86 -125.44,-2.35 l -28.48,23.59 c -40.45,33.5 -49.87,88.88 -21.04,123.69 l 309.62,373.78 c 28.83,34.8 85,35.85 125.45,2.35 l 28.48,-23.59 c 40.45,-33.51 49.86,-88.89 21.03,-123.69 l -309.62,-373.78" /></g></g></svg>